# xmcd
#
# Track frame offsets: 
#        150
#        10582
#        20632
#        30952
#        43917
#        56458
#        68788
#        81681
#        94574
#        102932
#        136232
#        221504
#        232192
#        242792
#        253392
#        265869
#        278869
#        289694
#        300519
#        311210
#        323751
#        336639
#        347220
#
# Disc length: 4763 seconds
#
# Revision: 0
# Processed by: cddbd v1.5.2PL0 Copyright (c) Steve Scherf et al.
# Submitted via: ExactAudioCopy v0.95b3
#
DISCID=5c129917
DTITLE=The Beatles  - Rubber Soul Recording Sessions Reconstructed - D
DTITLE=isc 3
DYEAR=1900
DGENRE=
TTITLE0=We Can Work It Out - RM1 from take 2
TTITLE1=We Can Work It Out - SI onto take 2
TTITLE2=We Can Work It Out - Mono mix, from the CD singles set
TTITLE3=Day Tripper - Mono mix, from the CD singles set
TTITLE4=Michelle - Take 1
TTITLE5=Michelle - SI onto takes 1 and 2
TTITLE6=What Goes On - Take 1
TTITLE7=What Goes On - SI onto take 1
TTITLE8=12 Bar Original - Rehearsal
TTITLE9=12 Bar Original - Takes 1 and 2
TTITLE10=Beatle Speech - Take 1
TTITLE11=Think For Yourself - Take 1 and SI onto take 1
TTITLE12=Think For Yourself - SI onto take 1
TTITLE13=Think For Yourself - SI onto take 1
TTITLE14=Michelle - First mono mix, from the US album
TTITLE15=What Goes On - Mono mix
TTITLE16=Run For Your Life - Mono mix
TTITLE17=Think For Yourself - Mono mix
TTITLE18=Think For Yourself - Stereo mix
TTITLE19=Michelle - Stereo mix
TTITLE20=What Goes On - Stereo mix
TTITLE21=Run For Your Life - Stereo mix
TTITLE22=We Can Work It Out - US stereo mix
EXTD=
EXTT0=
EXTT1=
EXTT2=
EXTT3=
EXTT4=
EXTT5=
EXTT6=
EXTT7=
EXTT8=
EXTT9=
EXTT10=
EXTT11=
EXTT12=
EXTT13=
EXTT14=
EXTT15=
EXTT16=
EXTT17=
EXTT18=
EXTT19=
EXTT20=
EXTT21=
EXTT22=
PLAYORDER=
